<?xml version="1.0" encoding="iso-8859-1"?>
<!-- Generator: Adobe Illustrator 19.0.0, SVG Export Plug-In . SVG Version: 6.00 Build 0)  -->
<svg version="1.1" id="Layer_1" xmlns="http://www.w3.org/2000/svg" xmlns:xlink="http://www.w3.org/1999/xlink" x="0px" y="0px"
	 viewBox="0 0 512.005 512.005" style="enable-background:new 0 0 512.005 512.005;" xml:space="preserve">
<rect x="103.683" y="76.762" style="fill:#E6E5E5;" width="290.534" height="390.656"/>
<rect x="103.683" y="44.588" style="fill:#242D3C;" width="290.534" height="32.174"/>
<rect x="103.683" y="206.976" style="fill:#16C6CC;" width="290.534" height="130.217"/>
<g>
	<polygon style="fill:#FFFFFF;" points="256.742,257.006 214.264,299.466 299.177,299.466 	"/>
	<polygon style="fill:#FFFFFF;" points="226.422,271.736 198.715,299.466 254.159,299.466 	"/>
	<path style="fill:#FFFFFF;" d="M244.214,253.601c0,4.902-3.983,8.899-8.881,8.899c-4.931,0-8.914-3.996-8.914-8.899
		c0-4.915,3.983-8.893,8.914-8.893C240.233,244.71,244.214,248.689,244.214,253.601z"/>
</g>
<g>
	<rect x="126.029" y="359.526" style="fill:#F15424;" width="67.046" height="53.601"/>
	<rect x="215.424" y="359.526" style="fill:#F15424;" width="67.046" height="53.601"/>
	<rect x="304.819" y="359.526" style="fill:#F15424;" width="67.046" height="53.601"/>
	<rect x="126.029" y="149.197" style="fill:#F15424;" width="245.837" height="11.663"/>
</g>
<g>
	<rect x="126.029" y="418.918" style="fill:#242D3C;" width="67.046" height="5.829"/>
	<rect x="126.029" y="430.541" style="fill:#242D3C;" width="67.046" height="5.824"/>
	<rect x="126.029" y="442.163" style="fill:#242D3C;" width="33.536" height="5.824"/>
	<rect x="215.424" y="418.918" style="fill:#242D3C;" width="67.046" height="5.829"/>
	<rect x="215.424" y="430.541" style="fill:#242D3C;" width="67.046" height="5.824"/>
	<rect x="215.424" y="442.163" style="fill:#242D3C;" width="33.51" height="5.824"/>
	<rect x="304.819" y="418.918" style="fill:#242D3C;" width="67.046" height="5.829"/>
	<rect x="304.819" y="430.541" style="fill:#242D3C;" width="67.046" height="5.824"/>
	<rect x="304.819" y="442.163" style="fill:#242D3C;" width="33.536" height="5.824"/>
	<rect x="167.757" y="180.992" style="fill:#242D3C;" width="162.381" height="5.839"/>
</g>
<rect x="126.029" y="96.899" style="fill:#16C6CC;" width="245.811" height="32.161"/>
<g>
	<rect x="153.347" y="110.067" style="fill:#242D3C;" width="27.313" height="5.827"/>
	<rect x="207.974" y="110.067" style="fill:#242D3C;" width="27.3" height="5.827"/>
	<rect x="262.605" y="110.067" style="fill:#242D3C;" width="27.3" height="5.827"/>
	<rect x="317.235" y="110.067" style="fill:#242D3C;" width="27.31" height="5.827"/>
</g>
<rect x="349.594" y="222.08" style="fill:#E6E5E5;" width="126.746" height="72.32"/>
<rect x="367.949" y="271.616" style="fill:#242D3C;" width="12.877" height="10.112"/>
<g>
	<rect x="387.251" y="252.595" style="fill:#CCCBCA;" width="12.877" height="29.135"/>
	<rect x="406.554" y="264.09" style="fill:#CCCBCA;" width="12.851" height="17.633"/>
</g>
<rect x="425.83" y="234.778" style="fill:#F15424;" width="12.851" height="46.953"/>
<rect x="445.133" y="246.451" style="fill:#CCCBCA;" width="12.877" height="35.259"/>
<g>
	<rect x="156.646" y="383.437" style="fill:#242D3C;" width="5.814" height="5.814"/>
	<path style="fill:#242D3C;" d="M150.612,389.245h-6.031v-5.814h6.031V389.245z M138.547,389.245h-6.031v-5.814h6.031V389.245z
		 M126.482,389.245h-6.031v-5.814h6.031V389.245z M114.414,389.245h-6.031v-5.814h6.031V389.245z M102.349,389.245h-6.031v-5.814
		h6.031V389.245z M90.281,389.245H84.25v-5.814h6.031V389.245z M78.216,389.245h-6.034v-5.814h6.034V389.245z M66.15,389.245h-6.034
		v-5.814h6.034V389.245z M54.083,389.245h-6.034v-5.814h6.034V389.245z M42.015,389.245h-6.031v-5.814h6.031V389.245z
		 M29.952,389.245h-6.036v-5.814h6.036V389.245z M17.882,389.245h-6.034v-5.814h6.031v5.814H17.882z"/>
	<rect y="383.437" style="fill:#242D3C;" width="5.816" height="5.814"/>
	<path style="fill:#242D3C;" d="M5.816,377.608H0v-5.821h5.816V377.608z M5.816,365.962H0v-5.824h5.816V365.962z M5.816,354.314H0
		v-5.821h5.816V354.314z M5.816,342.669H0v-5.821h5.816V342.669z M5.816,331.026H0v-5.821h5.816V331.026z M5.816,319.38H0v-5.821
		h5.816V319.38z M5.816,307.735H0v-5.824h5.816V307.735z M5.816,296.087H0v-5.821h5.816V296.087z M5.816,284.442H0v-5.821h5.816
		V284.442z M5.816,272.799H0v-5.821h5.816V272.799z"/>
	<rect y="255.334" style="fill:#242D3C;" width="5.816" height="5.814"/>
	<path style="fill:#242D3C;" d="M150.612,261.153h-6.031v-5.814h6.031V261.153z M138.547,261.153h-6.031v-5.814h6.031V261.153z
		 M126.479,261.153h-6.029v-5.814h6.029V261.153z M114.414,261.153h-6.031v-5.814h6.031V261.153z M102.349,261.153h-6.031v-5.814
		h6.031V261.153z M90.281,261.153H84.25v-5.814h6.031V261.153z M78.216,261.153h-6.034v-5.814h6.034V261.153z M66.15,261.153h-6.034
		v-5.814h6.034V261.153z M54.083,261.153h-6.034v-5.814h6.034V261.153z M42.015,261.153h-6.034v-5.814h6.034V261.153z
		 M29.952,261.153h-6.036v-5.814h6.036V261.153z M17.882,261.153h-6.034v-5.814h6.031v5.814H17.882z"/>
	<polygon style="fill:#242D3C;" points="159.555,261.153 156.649,261.153 156.649,255.337 162.463,255.337 162.463,261.153 	"/>
	<path style="fill:#242D3C;" d="M162.463,377.608h-5.814v-5.821h5.814V377.608z M162.463,365.962h-5.814v-5.824h5.814V365.962z
		 M162.463,354.314h-5.814v-5.821h5.814V354.314z M162.463,342.669h-5.814v-5.821h5.814V342.669z M162.463,331.026h-5.814v-5.821
		h5.814V331.026z M162.463,319.38h-5.814v-5.821h5.814V319.38z M162.463,307.735h-5.814v-5.824h5.814V307.735z M162.463,296.087
		h-5.814v-5.821h5.814V296.087z M162.463,284.442h-5.814v-5.821h5.814V284.442z M162.463,272.799h-5.814v-5.821h5.814V272.799z"/>
</g>
<rect x="2.908" y="142.93" style="fill:#16C6CC;" width="84.992" height="64.051"/>
<g>
	<rect x="12.388" y="166.246" style="fill:#FFFFFF;" width="66.035" height="5.827"/>
	<rect x="12.388" y="154.598" style="fill:#FFFFFF;" width="66.035" height="5.824"/>
	<rect x="12.388" y="177.869" style="fill:#FFFFFF;" width="66.035" height="5.824"/>
	<rect x="12.388" y="189.491" style="fill:#FFFFFF;" width="33.019" height="5.824"/>
</g>
<g>
	<rect x="415.77" y="169.574" style="fill:#242D3C;" width="96.236" height="5.824"/>
	<rect x="415.77" y="157.955" style="fill:#242D3C;" width="96.236" height="5.824"/>
	<rect x="415.77" y="146.33" style="fill:#242D3C;" width="48.12" height="5.839"/>
	<polygon style="fill:#242D3C;" points="458.445,427.832 430.884,359.534 499.164,387.095 472.584,401.229 	"/>
	<polygon style="fill:#242D3C;" points="473.743,394.701 466.056,402.409 488.814,425.132 496.486,417.436 	"/>
</g>
<g>
</g>
<g>
</g>
<g>
</g>
<g>
</g>
<g>
</g>
<g>
</g>
<g>
</g>
<g>
</g>
<g>
</g>
<g>
</g>
<g>
</g>
<g>
</g>
<g>
</g>
<g>
</g>
<g>
</g>
</svg>
