<?xml version="1.0" encoding="UTF-8" ?>
<!DOCTYPE svg PUBLIC "-//W3C//DTD SVG 1.1//EN" "http://www.w3.org/Graphics/SVG/1.1/DTD/svg11.dtd">
<svg width="512pt" height="512pt" viewBox="0 0 512 512" version="1.1" xmlns="http://www.w3.org/2000/svg">
<path fill="#000000" opacity="1.00" d=" M 60.35 96.23 C 63.89 95.88 67.46 96.01 71.01 96.00 C 196.68 96.00 322.36 95.99 448.03 96.00 C 457.35 95.94 466.54 100.26 472.49 107.42 C 480.35 116.55 482.24 130.25 477.15 141.17 C 472.20 152.40 460.35 160.12 448.06 159.99 C 320.01 160.00 191.96 160.02 63.91 159.98 C 47.25 160.33 32.17 145.74 32.04 129.07 C 31.10 112.94 44.27 97.69 60.35 96.23 Z" />
<path fill="#000000" opacity="1.00" d=" M 60.30 224.24 C 61.87 224.07 63.44 224.02 65.02 224.00 C 191.68 223.99 318.35 224.02 445.01 223.98 C 450.78 223.79 456.68 224.55 461.89 227.17 C 473.44 232.58 480.95 245.39 479.92 258.12 C 479.24 270.73 470.30 282.33 458.33 286.28 C 453.10 288.19 447.46 288.06 441.99 288.00 C 315.99 287.99 190.00 288.01 64.00 287.99 C 54.44 288.06 45.02 283.52 39.07 276.05 C 31.20 266.54 29.79 252.39 35.50 241.48 C 40.22 232.08 49.83 225.34 60.30 224.24 Z" />
<path fill="#000000" opacity="1.00" d=" M 57.37 352.68 C 59.54 352.21 61.76 352.04 63.98 352.00 C 191.99 352.00 320.00 352.00 448.02 352.00 C 456.65 351.95 465.20 355.64 471.14 361.90 C 479.67 370.64 482.38 384.44 477.75 395.76 C 474.19 404.87 466.22 412.12 456.79 414.76 C 451.66 416.32 446.24 415.98 440.95 416.00 C 318.31 416.00 195.66 416.00 73.02 416.00 C 65.58 416.03 57.77 416.54 50.89 413.18 C 38.28 407.73 30.27 393.53 32.26 379.91 C 33.75 366.72 44.35 355.26 57.37 352.68 Z" />
</svg>
