<?xml version="1.0" encoding="UTF-8" ?>
<!DOCTYPE svg PUBLIC "-//W3C//DTD SVG 1.1//EN" "http://www.w3.org/Graphics/SVG/1.1/DTD/svg11.dtd">
<svg width="585pt" height="170pt" viewBox="0 0 585 170" version="1.1" xmlns="http://www.w3.org/2000/svg">
<path fill="#3f51b5" opacity="1.00" d=" M 538.11 17.88 C 541.70 16.36 544.84 13.55 548.90 13.26 C 555.74 12.88 563.45 14.42 567.96 20.04 C 571.01 24.08 573.86 28.35 575.76 33.06 C 576.27 34.36 576.76 35.68 577.32 36.97 C 577.61 39.62 577.73 42.30 577.55 44.96 C 576.88 54.00 578.96 63.09 577.33 72.09 C 576.78 73.35 576.30 74.63 575.80 75.90 C 575.25 77.62 574.50 79.27 573.78 80.93 C 569.25 91.31 563.50 101.40 555.47 109.48 C 551.49 113.58 546.13 115.80 541.46 118.86 C 541.12 122.01 541.45 125.19 541.53 128.35 C 543.90 131.76 546.76 134.78 549.78 137.63 C 554.59 138.71 558.19 134.39 562.90 134.45 C 565.67 134.33 570.29 133.75 570.72 137.57 C 571.09 137.68 571.84 137.92 572.22 138.03 C 571.68 138.14 570.61 138.36 570.08 138.46 C 567.57 135.29 563.48 136.87 560.92 139.05 C 561.43 139.35 562.47 139.96 562.99 140.26 C 564.04 140.40 565.11 140.55 566.18 140.68 C 568.65 142.18 572.86 143.76 572.27 147.31 C 572.06 146.93 571.62 146.16 571.40 145.77 C 565.84 142.69 559.28 142.99 553.38 144.89 C 555.32 146.34 557.23 147.86 559.18 149.31 C 558.66 149.38 557.62 149.53 557.09 149.60 C 554.94 148.21 552.50 147.43 550.05 146.76 C 548.68 146.77 547.31 146.79 545.95 146.80 C 539.85 149.21 533.18 149.01 527.06 146.81 C 525.66 146.76 524.25 146.71 522.86 146.67 C 520.09 147.67 517.58 149.20 515.24 150.97 C 514.90 148.05 517.44 146.13 519.68 144.80 C 522.53 143.33 525.83 143.63 528.93 143.30 C 525.76 139.39 521.19 136.84 518.45 132.55 C 518.49 128.33 518.56 124.11 518.45 119.89 C 513.10 118.42 507.65 116.75 502.04 117.76 C 498.77 118.93 495.35 119.53 491.91 119.85 C 486.70 121.13 480.91 120.15 476.09 122.95 C 472.18 125.18 467.90 126.79 464.16 129.28 C 463.26 131.90 463.91 134.86 463.75 137.62 C 459.97 137.61 456.19 137.60 452.41 137.68 C 452.20 137.06 451.80 135.81 451.59 135.18 C 450.15 135.98 448.65 136.67 447.14 137.29 C 442.76 138.16 438.76 140.55 434.23 140.70 C 434.49 139.12 435.25 137.71 436.02 136.32 C 433.48 136.58 430.91 136.84 428.36 136.52 C 428.40 135.91 428.48 134.71 428.51 134.11 C 434.13 129.09 440.78 125.37 447.16 121.44 C 443.20 121.97 439.25 122.55 435.26 122.33 C 435.43 118.66 438.60 116.30 441.01 113.93 C 444.20 111.26 447.52 108.58 451.41 107.00 C 452.68 103.48 452.00 99.67 452.10 96.01 C 451.93 90.88 451.99 84.83 447.82 81.13 C 439.48 74.03 424.01 77.97 420.90 88.75 C 419.45 93.33 419.43 98.18 419.37 102.93 C 419.37 114.50 419.37 126.06 419.37 137.62 C 415.50 137.62 411.62 137.62 407.75 137.62 C 407.75 114.79 407.75 91.96 407.75 69.13 C 411.25 69.12 414.75 69.12 418.25 69.13 C 418.25 72.34 418.26 75.55 418.21 78.76 C 422.10 73.12 428.11 68.88 434.98 67.94 C 443.36 66.61 453.13 68.32 458.96 74.97 C 464.68 82.03 463.68 91.66 463.71 100.15 C 465.72 98.19 468.21 96.86 470.53 95.31 C 480.15 89.05 489.68 82.65 498.86 75.77 C 507.65 68.20 516.26 60.41 525.36 53.22 C 530.45 49.36 536.26 46.40 540.76 41.80 C 544.55 38.37 542.36 31.74 537.96 29.93 C 532.02 27.56 525.73 26.11 519.43 25.08 C 518.59 21.71 522.26 20.52 524.77 19.64 C 529.04 18.06 533.67 18.49 538.11 17.88 M 527.36 124.86 C 527.40 127.28 527.04 129.79 527.67 132.16 C 529.66 135.30 532.47 137.79 534.93 140.55 C 537.71 140.39 540.46 139.92 543.18 139.30 C 539.32 136.27 535.62 132.98 532.58 129.13 C 532.60 127.14 532.58 125.16 532.58 123.17 C 530.84 123.75 529.11 124.34 527.36 124.86 Z" />
<path fill="#3f51b5" opacity="1.00" d=" M 31.87 55.47 C 37.94 51.92 44.03 48.41 50.12 44.88 C 50.13 52.96 50.12 61.04 50.13 69.12 C 54.29 69.13 58.46 69.13 62.62 69.13 C 62.62 73.92 62.63 78.71 62.62 83.50 C 58.46 83.49 54.29 83.50 50.13 83.49 C 50.21 95.36 49.91 107.23 50.32 119.09 C 50.20 121.10 51.19 123.18 53.22 123.81 C 56.37 124.75 59.57 123.29 62.58 122.45 C 63.08 127.11 63.54 131.78 64.18 136.43 C 56.15 139.58 46.40 140.70 38.58 136.44 C 33.09 133.47 32.17 126.62 31.99 121.00 C 31.73 108.50 31.95 96.00 31.87 83.49 C 29.08 83.50 26.29 83.50 23.51 83.50 C 23.50 78.71 23.50 73.92 23.51 69.13 C 26.29 69.13 29.08 69.13 31.87 69.12 C 31.88 64.57 31.88 60.02 31.87 55.47 Z" />
<path fill="#3f51b5" opacity="1.00" d=" M 77.57 74.49 C 83.75 68.56 92.83 67.53 101.00 67.50 C 108.53 67.68 116.75 68.31 122.92 73.13 C 127.00 76.22 129.49 80.86 131.05 85.64 C 125.35 86.69 119.65 87.76 113.95 88.78 C 112.60 84.81 109.37 81.42 105.06 80.92 C 100.24 80.38 94.93 80.17 90.54 82.54 C 87.57 84.07 87.80 88.78 90.95 89.96 C 102.40 94.81 115.67 94.76 126.28 101.72 C 135.09 107.57 135.32 121.17 128.85 128.85 C 123.73 135.55 115.19 138.44 107.04 138.98 C 97.47 139.60 87.03 138.86 79.02 133.02 C 73.96 129.46 70.59 123.98 68.88 118.10 C 74.96 117.16 81.05 116.23 87.13 115.33 C 88.20 118.95 90.07 122.66 93.63 124.38 C 98.48 126.67 104.20 126.46 109.28 125.13 C 112.47 124.34 115.56 121.57 114.99 117.99 C 114.87 115.28 112.15 114.00 109.87 113.44 C 100.90 111.16 91.71 109.46 83.14 105.84 C 77.67 103.61 73.11 98.82 71.94 92.92 C 70.45 86.34 72.54 79.05 77.57 74.49 Z" />
<path fill="#3f51b5" opacity="1.00" d=" M 159.07 78.58 C 165.73 68.27 180.12 64.55 191.08 69.84 C 195.05 71.74 197.85 75.38 199.52 79.38 C 203.43 73.79 209.10 69.07 216.00 67.95 C 223.38 66.68 232.05 67.96 237.17 73.91 C 241.62 79.16 242.14 86.42 242.01 92.99 C 241.98 107.87 242.02 122.75 241.99 137.63 C 238.12 137.62 234.25 137.62 230.38 137.62 C 230.36 122.43 230.40 107.23 230.37 92.04 C 230.27 87.75 229.82 82.68 225.96 80.02 C 218.84 75.01 207.70 78.01 203.72 85.67 C 201.58 89.74 201.28 94.46 201.24 98.98 C 201.25 111.86 201.25 124.74 201.25 137.62 C 197.37 137.62 193.50 137.62 189.63 137.62 C 189.61 122.41 189.67 107.20 189.60 91.99 C 189.44 87.27 188.51 81.57 183.99 79.05 C 176.65 75.47 166.50 78.60 162.94 86.09 C 160.85 90.41 160.52 95.31 160.38 100.03 C 160.36 112.56 160.38 125.09 160.37 137.62 C 156.46 137.62 152.54 137.62 148.63 137.62 C 148.63 114.79 148.63 91.96 148.63 69.13 C 152.13 69.12 155.62 69.12 159.12 69.13 C 159.13 72.28 159.14 75.43 159.07 78.58 Z" />
<path fill="#3f51b5" opacity="1.00" d=" M 266.42 75.38 C 274.16 68.08 285.74 66.12 295.89 68.40 C 304.72 70.36 312.30 76.85 315.87 85.12 C 318.84 91.77 319.39 99.17 319.25 106.36 C 302.08 106.39 284.92 106.35 267.75 106.38 C 268.21 112.60 269.79 119.14 274.29 123.73 C 280.42 130.28 291.34 131.59 298.88 126.77 C 302.88 124.20 305.09 119.82 306.88 115.58 C 310.89 116.06 314.91 116.54 318.92 117.08 C 317.01 123.59 313.44 129.84 307.75 133.74 C 300.13 139.20 290.15 139.95 281.14 138.56 C 272.40 137.18 264.36 131.71 260.17 123.87 C 255.76 115.68 255.15 106.00 256.15 96.92 C 257.03 88.87 260.29 80.84 266.42 75.38 M 276.03 81.07 C 271.17 84.76 268.86 90.80 268.33 96.71 C 281.22 96.79 294.10 96.75 306.99 96.73 C 306.33 91.67 305.20 86.27 301.40 82.56 C 294.99 75.68 283.26 75.29 276.03 81.07 Z" />
<path fill="#3f51b5" opacity="1.00" d=" M 339.90 73.84 C 346.17 69.07 354.29 67.67 361.99 67.51 C 369.07 67.46 376.61 68.21 382.59 72.35 C 387.02 75.40 389.05 80.88 389.28 86.08 C 389.93 99.71 388.96 113.39 389.94 127.01 C 390.14 130.75 391.48 134.28 393.04 137.64 C 388.99 137.41 384.84 138.04 380.85 137.35 C 379.55 134.83 379.10 132.00 378.57 129.25 C 372.51 134.46 365.13 138.44 357.04 139.00 C 349.18 139.66 340.17 138.60 334.59 132.42 C 328.16 125.69 328.16 114.13 334.22 107.17 C 338.52 102.09 345.15 99.75 351.56 98.84 C 360.34 97.59 369.25 96.83 377.75 94.15 C 377.81 89.40 377.96 83.52 373.62 80.43 C 367.40 76.31 359.17 76.46 352.21 78.37 C 346.91 79.89 344.47 85.31 343.07 90.16 C 339.27 89.65 335.47 89.14 331.68 88.61 C 333.01 83.09 335.24 77.40 339.90 73.84 M 350.92 109.09 C 346.22 109.99 342.05 114.06 342.22 119.05 C 341.88 123.98 345.78 128.37 350.47 129.42 C 359.03 131.48 369.27 128.89 374.47 121.42 C 378.16 116.16 377.60 109.40 377.64 103.31 C 369.05 106.57 359.79 107.02 350.92 109.09 Z" />
</svg>
